<?xml version="1.0" encoding="UTF-8"?> <svg xmlns="http://www.w3.org/2000/svg" width="209" height="16" viewBox="0 0 209 16" fill="none"><path d="M5.07812 2.22656L6.98438 7.875L8.78906 2.22656H7.70312V0.226562H11.9453V2.22656H10.8594L12.7891 7.875L14.6484 2.22656H13.4609V0.226562H18.1875V2.22656H16.9062L13.6406 12.0625H11.4609L9.60938 6.6875L7.85156 12.0625H5.59375L2.23438 2.22656H0.984375V0.226562H6.29688V2.22656H5.07812ZM25.9062 8.44531H19.7812C19.8438 9.07552 20.0599 9.57552 20.4297 9.94531C20.8047 10.3099 21.2865 10.4922 21.875 10.4922C22.526 10.4922 23.1615 10.1693 23.7812 9.52344L25.8125 10.1797C25.3646 10.8516 24.8099 11.3568 24.1484 11.6953C23.487 12.0286 22.7031 12.1953 21.7969 12.1953C20.8906 12.1953 20.0885 12.026 19.3906 11.6875C18.6979 11.3438 18.1589 10.8594 17.7734 10.2344C17.3932 9.60938 17.2031 8.875 17.2031 8.03125C17.2031 7.19792 17.401 6.44271 17.7969 5.76562C18.1979 5.08854 18.737 4.5599 19.4141 4.17969C20.0964 3.79427 20.8359 3.60156 21.6328 3.60156C22.4974 3.60156 23.25 3.80208 23.8906 4.20312C24.5312 4.59896 25.0234 5.16406 25.3672 5.89844C25.7161 6.6276 25.8958 7.47656 25.9062 8.44531ZM21.5078 5.34375C21.0391 5.34375 20.6615 5.47917 20.375 5.75C20.0938 6.02083 19.9167 6.4349 19.8438 6.99219H23.2656C23.1927 6.5026 22.9922 6.10677 22.6641 5.80469C22.3411 5.4974 21.9557 5.34375 21.5078 5.34375ZM35.5938 4.79688C36.6615 4.05208 37.7656 3.67969 38.9062 3.67969C39.5781 3.67969 40.1146 3.78385 40.5156 3.99219C40.9167 4.20052 41.2109 4.53906 41.3984 5.00781C41.5859 5.47656 41.6797 6.10677 41.6797 6.89844V10.1094H43.0391V12H39.0547V7.14844C39.0547 6.33073 38.6849 5.92188 37.9453 5.92188C37.4141 5.92188 36.7865 6.10156 36.0625 6.46094V10.1094H37.4062V12H33.4375V7.23438C33.4375 6.35938 33.0807 5.92188 32.3672 5.92188C31.862 5.92188 31.2318 6.10156 30.4766 6.46094V10.1094H31.8203V12H26.5078V10.1094H27.8516V5.71094H26.5078V3.78906H30.4766V4.47656C31.3411 3.94531 32.2266 3.67969 33.1328 3.67969C34.1901 3.67969 35.0104 4.05208 35.5938 4.79688ZM50.0781 3.60156C50.7812 3.60156 51.4036 3.79688 51.9453 4.1875C52.4922 4.57292 52.9115 5.09115 53.2031 5.74219C53.5 6.39323 53.6484 7.09896 53.6484 7.85938C53.6484 8.625 53.5026 9.33594 53.2109 9.99219C52.9245 10.6484 52.5156 11.1693 51.9844 11.5547C51.4583 11.9349 50.849 12.125 50.1562 12.125C49.2917 12.125 48.4922 11.7682 47.7578 11.0547V12H43.7266V10.1094H45.1484V2.10938H43.7266V0.226562H47.7578V4.73438C48.4193 3.97917 49.1927 3.60156 50.0781 3.60156ZM49.3594 10.0938C49.8594 10.0938 50.25 9.88802 50.5312 9.47656C50.8177 9.0599 50.9609 8.50781 50.9609 7.82031C50.9609 7.13802 50.8177 6.61979 50.5312 6.26562C50.25 5.90625 49.8646 5.72656 49.375 5.72656C48.8646 5.72656 48.4635 5.92969 48.1719 6.33594C47.8854 6.74219 47.7422 7.28125 47.7422 7.95312C47.7422 8.58333 47.888 9.09896 48.1797 9.5C48.4766 9.89583 48.8698 10.0938 49.3594 10.0938ZM59.3281 10.1094V12H54.2578V10.1094H55.5391V2.10938H54.2578V0.226562H58.1641V10.1094H59.3281ZM68.6406 8.44531H62.5156C62.5781 9.07552 62.7943 9.57552 63.1641 9.94531C63.5391 10.3099 64.0208 10.4922 64.6094 10.4922C65.2604 10.4922 65.8958 10.1693 66.5156 9.52344L68.5469 10.1797C68.099 10.8516 67.5443 11.3568 66.8828 11.6953C66.2214 12.0286 65.4375 12.1953 64.5312 12.1953C63.625 12.1953 62.8229 12.026 62.125 11.6875C61.4323 11.3438 60.8932 10.8594 60.5078 10.2344C60.1276 9.60938 59.9375 8.875 59.9375 8.03125C59.9375 7.19792 60.1354 6.44271 60.5312 5.76562C60.9323 5.08854 61.4714 4.5599 62.1484 4.17969C62.8307 3.79427 63.5703 3.60156 64.3672 3.60156C65.2318 3.60156 65.9844 3.80208 66.625 4.20312C67.2656 4.59896 67.7578 5.16406 68.1016 5.89844C68.4505 6.6276 68.6302 7.47656 68.6406 8.44531ZM64.2422 5.34375C63.7734 5.34375 63.3958 5.47917 63.1094 5.75C62.8281 6.02083 62.651 6.4349 62.5781 6.99219H66C65.9271 6.5026 65.7266 6.10677 65.3984 5.80469C65.0755 5.4974 64.6901 5.34375 64.2422 5.34375ZM72.6016 5.71094L73.9766 9.375L75.4297 5.71094H74.3594V3.78906H78.6797V5.71094H77.4922L73.5781 15.6953H70.7109V13.8047H72.2812L72.8203 12.3516L69.8438 5.71094H68.6484V3.78906H73.5781V5.71094H72.6016ZM93.875 1.13281V0.226562H95.875V4.36719H93.875C93.2865 2.8724 92.3047 2.125 90.9297 2.125C90.2474 2.125 89.6406 2.30208 89.1094 2.65625C88.5833 3.01042 88.1719 3.49479 87.875 4.10938C87.5833 4.71875 87.4375 5.39583 87.4375 6.14062C87.4375 6.83854 87.5755 7.47917 87.8516 8.0625C88.1328 8.64062 88.5234 9.10417 89.0234 9.45312C89.5234 9.79688 90.099 9.96875 90.75 9.96875C91.5521 9.96875 92.2474 9.69271 92.8359 9.14062C93.4297 8.58333 93.8281 7.85156 94.0312 6.94531L96.3516 8.04688C95.4766 10.776 93.5365 12.1406 90.5312 12.1406C89.2396 12.1406 88.1094 11.8932 87.1406 11.3984C86.1771 10.9036 85.4349 10.2005 84.9141 9.28906C84.3932 8.3776 84.1328 7.3125 84.1328 6.09375C84.1328 4.94271 84.401 3.90625 84.9375 2.98438C85.474 2.0625 86.2135 1.34115 87.1562 0.820312C88.1042 0.294271 89.1641 0.03125 90.3359 0.03125C91.7578 0.03125 92.9375 0.398438 93.875 1.13281ZM106.156 8.44531H100.031C100.094 9.07552 100.31 9.57552 100.68 9.94531C101.055 10.3099 101.536 10.4922 102.125 10.4922C102.776 10.4922 103.411 10.1693 104.031 9.52344L106.062 10.1797C105.615 10.8516 105.06 11.3568 104.398 11.6953C103.737 12.0286 102.953 12.1953 102.047 12.1953C101.141 12.1953 100.339 12.026 99.6406 11.6875C98.9479 11.3438 98.4089 10.8594 98.0234 10.2344C97.6432 9.60938 97.4531 8.875 97.4531 8.03125C97.4531 7.19792 97.651 6.44271 98.0469 5.76562C98.4479 5.08854 98.987 4.5599 99.6641 4.17969C100.346 3.79427 101.086 3.60156 101.883 3.60156C102.747 3.60156 103.5 3.80208 104.141 4.20312C104.781 4.59896 105.273 5.16406 105.617 5.89844C105.966 6.6276 106.146 7.47656 106.156 8.44531ZM101.758 5.34375C101.289 5.34375 100.911 5.47917 100.625 5.75C100.344 6.02083 100.167 6.4349 100.094 6.99219H103.516C103.443 6.5026 103.242 6.10677 102.914 5.80469C102.591 5.4974 102.206 5.34375 101.758 5.34375ZM115.75 6.76562V10.1094H116.984V12H113.125V6.97656C113.125 6.59115 113.065 6.3125 112.945 6.14062C112.831 5.96354 112.635 5.875 112.359 5.875C111.859 5.875 111.357 6.05469 110.852 6.41406V10.1094H112.133V12H107V10.1094H108.25V5.71094H107V3.78906H110.852V4.5625C111.633 3.97396 112.435 3.67969 113.258 3.67969C114.076 3.67969 114.695 3.9401 115.117 4.46094C115.539 4.97656 115.75 5.74479 115.75 6.76562ZM122.367 3.78906V5.71094H120.852V9.29688C120.852 9.55208 120.901 9.74479 121 9.875C121.099 10 121.284 10.0625 121.555 10.0625C121.779 10.0625 122.049 10.0052 122.367 9.89062V11.7109C121.664 11.987 121.003 12.125 120.383 12.125C119.669 12.125 119.133 11.9453 118.773 11.5859C118.419 11.2214 118.242 10.7083 118.242 10.0469V5.71094H117.203V3.78906H118.242V2.51562L120.852 0.640625V3.78906H122.367ZM130.414 3.69531V6.15625C129.695 6.20312 129.122 6.31771 128.695 6.5C128.273 6.67708 127.945 6.98438 127.711 7.42188C127.482 7.85938 127.367 8.48438 127.367 9.29688V10.1094H129V12H123.242V10.1094H124.75V5.71094H123.32V3.78906H127.148V5.875C127.341 5.24479 127.698 4.72135 128.219 4.30469C128.74 3.88802 129.385 3.67969 130.156 3.67969C130.271 3.67969 130.357 3.6849 130.414 3.69531ZM138.852 7.07031V10.1094H140.18V12H136.242V11.3594C135.497 11.8698 134.753 12.125 134.008 12.125C133.107 12.125 132.385 11.8932 131.844 11.4297C131.302 10.9661 131.031 10.3411 131.031 9.55469C131.031 8.72135 131.333 8.05469 131.938 7.55469C132.547 7.04948 133.354 6.79688 134.359 6.79688C134.708 6.79688 135.018 6.83594 135.289 6.91406C135.565 6.98698 135.883 7.11458 136.242 7.29688V6.64062C136.242 6.22396 136.112 5.89062 135.852 5.64062C135.591 5.39062 135.201 5.26562 134.68 5.26562C134.112 5.26562 133.609 5.48438 133.172 5.92188L131.062 5.53906C131.703 4.2474 133.026 3.60156 135.031 3.60156C136.406 3.60156 137.385 3.88542 137.969 4.45312C138.557 5.01562 138.852 5.88802 138.852 7.07031ZM134.594 10.4922C135.062 10.4922 135.612 10.2109 136.242 9.64844V8.91406C135.68 8.54948 135.164 8.36719 134.695 8.36719C134.32 8.36719 134.034 8.45573 133.836 8.63281C133.638 8.8099 133.539 9.0625 133.539 9.39062C133.539 10.125 133.891 10.4922 134.594 10.4922ZM145.938 10.1094V12H140.867V10.1094H142.148V2.10938H140.867V0.226562H144.773V10.1094H145.938ZM162.211 0.226562H168.227V2.22656H166.703V10H168.227V12H162.289V10H163.711V2.22656H163.438L159.789 12H158.531L154.836 2.22656H154.562V10H156.078V12H151.102V10H152.641V2.22656H151.102V0.226562H157.023L159.602 7.11719L162.211 0.226562ZM176.695 7.07031V10.1094H178.023V12H174.086V11.3594C173.341 11.8698 172.596 12.125 171.852 12.125C170.951 12.125 170.229 11.8932 169.688 11.4297C169.146 10.9661 168.875 10.3411 168.875 9.55469C168.875 8.72135 169.177 8.05469 169.781 7.55469C170.391 7.04948 171.198 6.79688 172.203 6.79688C172.552 6.79688 172.862 6.83594 173.133 6.91406C173.409 6.98698 173.727 7.11458 174.086 7.29688V6.64062C174.086 6.22396 173.956 5.89062 173.695 5.64062C173.435 5.39062 173.044 5.26562 172.523 5.26562C171.956 5.26562 171.453 5.48438 171.016 5.92188L168.906 5.53906C169.547 4.2474 170.87 3.60156 172.875 3.60156C174.25 3.60156 175.229 3.88542 175.812 4.45312C176.401 5.01562 176.695 5.88802 176.695 7.07031ZM172.438 10.4922C172.906 10.4922 173.456 10.2109 174.086 9.64844V8.91406C173.523 8.54948 173.008 8.36719 172.539 8.36719C172.164 8.36719 171.878 8.45573 171.68 8.63281C171.482 8.8099 171.383 9.0625 171.383 9.39062C171.383 10.125 171.734 10.4922 172.438 10.4922ZM183.898 4.07812V3.78906H185.766V6.19531H183.898C183.737 5.61719 183.138 5.32812 182.102 5.32812C181.357 5.32812 180.984 5.53646 180.984 5.95312C180.984 6.13542 181.083 6.27083 181.281 6.35938C181.479 6.44792 181.768 6.52083 182.148 6.57812C183.216 6.71354 184.057 6.90885 184.672 7.16406C185.286 7.41406 185.716 7.72656 185.961 8.10156C186.206 8.47135 186.328 8.92188 186.328 9.45312C186.328 10.3177 186.031 10.9922 185.438 11.4766C184.849 11.9557 184.047 12.1953 183.031 12.1953C182.042 12.1953 181.37 11.9974 181.016 11.6016V12H179.109V9.17188H181.016C181.068 9.5625 181.255 9.86979 181.578 10.0938C181.906 10.3177 182.31 10.4297 182.789 10.4297C183.258 10.4297 183.604 10.3776 183.828 10.2734C184.052 10.1641 184.164 9.97656 184.164 9.71094C184.164 9.52865 184.117 9.38802 184.023 9.28906C183.93 9.1849 183.747 9.09375 183.477 9.01562C183.211 8.9375 182.802 8.84896 182.25 8.75C181.021 8.55729 180.135 8.2474 179.594 7.82031C179.057 7.38802 178.789 6.80729 178.789 6.07812C178.789 5.33333 179.068 4.7474 179.625 4.32031C180.188 3.89323 180.927 3.67969 181.844 3.67969C182.583 3.67969 183.268 3.8125 183.898 4.07812ZM191.25 1.45312C191.25 1.84896 191.107 2.1901 190.82 2.47656C190.539 2.75781 190.201 2.89844 189.805 2.89844C189.409 2.89844 189.07 2.76042 188.789 2.48438C188.508 2.20312 188.367 1.85938 188.367 1.45312C188.367 1.05208 188.508 0.713542 188.789 0.4375C189.07 0.15625 189.409 0.015625 189.805 0.015625C190.19 0.015625 190.526 0.158854 190.812 0.445312C191.104 0.726562 191.25 1.0625 191.25 1.45312ZM187.328 15.6328C187.062 15.6328 186.857 15.625 186.711 15.6094C186.565 15.5938 186.466 15.5859 186.414 15.5859V13.4688C186.523 13.4948 186.685 13.5078 186.898 13.5078C187.503 13.5078 187.917 13.401 188.141 13.1875C188.365 12.974 188.477 12.599 188.477 12.0625V5.71094H187.234V3.78906H191.102V11.8438C191.102 12.7812 190.987 13.5208 190.758 14.0625C190.529 14.6094 190.141 15.0078 189.594 15.2578C189.052 15.5078 188.297 15.6328 187.328 15.6328ZM196.625 1.45312C196.625 1.86979 196.482 2.21615 196.195 2.49219C195.914 2.76302 195.578 2.89844 195.188 2.89844C194.792 2.89844 194.451 2.75781 194.164 2.47656C193.883 2.1901 193.742 1.84896 193.742 1.45312C193.742 1.0625 193.883 0.726562 194.164 0.445312C194.451 0.158854 194.792 0.015625 195.188 0.015625C195.578 0.015625 195.914 0.158854 196.195 0.445312C196.482 0.726562 196.625 1.0625 196.625 1.45312ZM197.68 10.1094V12H192.609V10.1094H193.859V5.71094H192.609V3.78906H196.461V10.1094H197.68ZM208.18 10.1094V12H204.234V11.0234C203.484 11.7578 202.688 12.125 201.844 12.125C201.151 12.125 200.539 11.9401 200.008 11.5703C199.477 11.1953 199.06 10.6823 198.758 10.0312C198.461 9.38021 198.312 8.65625 198.312 7.85938C198.312 7.03646 198.461 6.30208 198.758 5.65625C199.06 5.01042 199.484 4.50781 200.031 4.14844C200.578 3.78385 201.188 3.60156 201.859 3.60156C202.823 3.60156 203.615 3.97396 204.234 4.71875V2.10938H202.938V0.226562H206.836V10.1094H208.18ZM202.617 10.0625C203.128 10.0625 203.526 9.86198 203.812 9.46094C204.104 9.05469 204.25 8.53125 204.25 7.89062C204.25 7.25 204.102 6.72656 203.805 6.32031C203.513 5.91406 203.112 5.71094 202.602 5.71094C202.107 5.71094 201.714 5.91406 201.422 6.32031C201.13 6.72656 200.984 7.24479 200.984 7.875C200.984 8.51042 201.13 9.03385 201.422 9.44531C201.714 9.85677 202.112 10.0625 202.617 10.0625Z" fill="#159778"></path></svg> 